<svg xmlns="http://www.w3.org/2000/svg" xmlns:xlink="http://www.w3.org/1999/xlink" width="1080" zoomAndPan="magnify" viewBox="0 0 810 809.999993" height="1080" preserveAspectRatio="xMidYMid meet" version="1.0"><path fill="#000000" d="M 623.632812 113.222656 C 607.496094 97.082031 581.359375 97.082031 565.222656 113.222656 C 549.085938 129.335938 549.085938 155.53125 565.222656 171.644531 L 661.910156 268.355469 L 325.246094 268.355469 C 302.445312 268.355469 283.9375 286.839844 283.9375 309.671875 C 283.9375 332.507812 302.445312 350.992188 325.246094 350.992188 L 661.910156 350.992188 L 565.222656 447.699219 C 549.085938 463.84375 549.085938 490.007812 565.222656 506.125 C 573.292969 514.195312 583.867188 518.214844 594.441406 518.214844 C 605.015625 518.214844 615.589844 514.195312 623.660156 506.125 L 790.851562 338.871094 C 806.988281 322.730469 806.988281 296.5625 790.851562 280.449219 Z M 623.632812 113.222656 " fill-opacity="1" fill-rule="nonzero"/><path fill="#000000" d="M 16.394531 532.429688 L 183.585938 699.652344 C 191.65625 707.722656 202.230469 711.746094 212.804688 711.746094 C 223.378906 711.746094 233.953125 707.722656 242.023438 699.652344 C 258.160156 683.539062 258.160156 657.34375 242.023438 641.230469 L 145.335938 544.519531 L 482 544.519531 C 504.800781 544.519531 523.308594 526.039062 523.308594 503.203125 C 523.308594 480.367188 504.800781 461.886719 482 461.886719 L 145.335938 461.886719 L 242.023438 365.175781 C 258.160156 349.035156 258.160156 322.867188 242.023438 306.753906 C 225.886719 290.613281 199.75 290.613281 183.613281 306.753906 L 16.421875 474.007812 C 0.285156 490.148438 0.285156 516.289062 16.394531 532.429688 Z M 16.394531 532.429688 " fill-opacity="1" fill-rule="nonzero"/></svg>